<svg width="55" height="45" viewBox="0 0 55 45" fill="none" xmlns="http://www.w3.org/2000/svg">
<path d="M41.8363 12.5864L40.4319 12.5C40.8503 12.0386 41.1076 11.4286 41.1076 10.7582C41.1076 9.32538 39.9417 8.15955 38.5089 8.15955C37.076 8.15955 35.9103 9.32538 35.9103 10.7582C35.9103 11.2577 36.0545 11.7232 36.2996 12.1195C34.8701 11.7736 33.5469 11.0428 32.4787 9.99188L32.4639 9.97746C32.0718 9.59821 31.6547 9.23606 31.2241 8.90134L30.9711 8.70457C30.0093 7.95661 28.8083 7.54466 27.5896 7.54466C26.48 7.54466 25.4086 7.87463 24.4911 8.49904C22.8217 9.63514 21.9083 11.5873 22.1077 13.5935C22.3725 16.2574 23.702 19.661 28.5326 20.7478C29.269 20.9136 30.0574 20.9975 30.876 20.9975C30.8763 20.9975 30.8759 20.9975 30.8761 20.9975C35.1631 20.9975 39.7774 18.7082 42.893 16.788C43.7518 16.2587 44.1482 15.2838 43.9028 14.3046C43.657 13.3231 42.8458 12.6486 41.8363 12.5864ZM38.5089 9.18909C39.3741 9.18909 40.078 9.89304 40.078 10.7582C40.078 11.6234 39.3741 12.3273 38.5089 12.3273C37.6437 12.3273 36.9399 11.6233 36.9399 10.7582C36.9399 9.89304 37.6438 9.18909 38.5089 9.18909ZM42.3529 15.9117C39.3504 17.7622 34.9221 19.9682 30.8761 19.9682C30.1334 19.9682 29.421 19.8927 28.7586 19.7437C24.5273 18.7917 23.3635 15.8184 23.1322 13.4919C22.9702 11.8611 23.7127 10.2742 25.0703 9.35034C25.8163 8.84265 26.6875 8.57433 27.5896 8.57433C28.5805 8.57433 29.557 8.90932 30.3391 9.51739L30.5921 9.71416C30.9935 10.0262 31.3824 10.3638 31.7566 10.7259C33.345 12.2886 35.4352 13.2241 37.6421 13.3599L41.773 13.6142C42.4435 13.6554 42.797 14.1273 42.9042 14.555C43.0109 14.9809 42.9221 15.5609 42.3529 15.9117Z" fill="white"/>
<path d="M38.5089 10.4357C38.6867 10.4357 38.8314 10.5804 38.8314 10.7582C38.8314 10.8446 38.7983 10.9084 38.7706 10.9466C38.6041 11.1771 38.6558 11.4989 38.8862 11.6654C38.9773 11.7313 39.0828 11.7631 39.1873 11.7631C39.3469 11.7631 39.5043 11.6891 39.6049 11.5498C39.7724 11.3182 39.8608 11.0445 39.8608 10.7582C39.8608 10.0127 39.2542 9.4062 38.5087 9.4062C38.2244 9.4062 37.994 9.63669 37.994 9.92097C37.994 10.2053 38.2246 10.4357 38.5089 10.4357Z" fill="white"/>
<path d="M54.8086 13.2303C52.765 11.5797 47.6514 10.5867 46.2176 10.3346C45.2227 4.73016 38.7733 0.391174 30.9899 0.391174C25.7184 0.391174 19.6514 3.07364 16.2361 6.91446C14.476 8.894 13.0176 11.4002 11.4737 14.0537C8.78595 18.6728 5.73968 23.9081 0.216463 27.8358C-0.0226468 28.0058 -0.0727081 28.3424 0.111451 28.5753C0.284156 28.7936 0.609232 28.8201 0.835859 28.6586C6.52586 24.6041 9.62696 19.2743 12.3635 14.5714C12.9138 13.6255 13.4531 12.6993 13.9977 11.8113H16.808C16.84 12.7132 16.9893 14.657 17.6547 16.757C18.8609 20.5639 21.1976 23.0234 24.4122 23.8693C26.6695 24.4633 29.0403 24.5248 31.3331 24.5843C31.7094 24.5941 32.0823 24.604 32.4516 24.616C32.2045 25.3637 31.6678 26.7319 30.6506 28.294C29.2436 30.4549 26.6003 33.4417 21.9974 35.4005C21.7357 35.5118 21.614 35.8141 21.7253 36.0757C21.8086 36.2715 21.999 36.3891 22.1993 36.3891C22.2665 36.3891 22.3348 36.3759 22.4006 36.3479C27.2633 34.2787 30.0548 31.1091 31.5402 28.8147C32.7405 26.9606 33.3016 25.3841 33.5188 24.6602C35.3398 24.7547 37.0299 24.9664 38.4444 25.6025C40.3603 26.4644 41.5778 28.0383 42.23 30.5174C42.3622 31.0198 42.447 31.5341 42.486 32.0521C42.819 36.4766 42.5531 40.5353 41.6922 43.9433C41.6271 44.2011 41.7514 44.4797 41.9998 44.5745C42.0615 44.598 42.1241 44.6091 42.1853 44.6091C42.4153 44.6091 42.6248 44.4539 42.684 44.2207C43.8314 39.6974 43.9736 34.3259 43.1069 28.2558C42.5298 24.2149 43.2403 20.0156 45.1074 16.3925C45.2647 16.3969 45.4697 16.4006 45.7178 16.4006C47.725 16.4006 52.4007 16.1564 54.8257 14.0167C54.9394 13.9163 55.0031 13.7711 54.9999 13.6196C54.9965 13.4679 54.9266 13.3255 54.8086 13.2303ZM52.6869 13.1818L46.208 13.42C46.3031 12.9015 46.3516 12.3762 46.3516 11.8457C46.3516 11.6977 46.3466 11.5506 46.3391 11.404C47.6437 11.6467 50.6228 12.2648 52.6869 13.1818ZM41.9629 27.3118C41.186 26.1223 40.1589 25.2446 38.8667 24.6634C36.7109 23.6937 34.1117 23.6263 31.3599 23.555C29.1259 23.4971 26.8159 23.4373 24.6743 22.8737C21.7849 22.1134 19.7561 19.9594 18.6443 16.4714C17.7949 13.8071 17.8294 11.3309 17.8299 11.3066C17.8326 11.1684 17.7796 11.0349 17.6827 10.9362C17.5859 10.8375 17.4535 10.7819 17.3153 10.7819H14.6445C15.396 9.61738 16.1692 8.53933 17.0057 7.59859C20.2401 3.9611 25.9907 1.42071 30.9901 1.42071C38.8929 1.42071 45.3222 6.09739 45.3222 11.8457C45.3222 13.1481 44.9947 14.4188 44.3488 15.6226C42.4405 19.1788 41.6079 23.2902 41.9629 27.3118ZM45.6141 15.3677C45.7434 15.0683 45.8554 14.7653 45.9509 14.4596L52.5695 14.2162C50.2363 15.2442 47.0657 15.3698 45.6141 15.3677Z" fill="white"/>
</svg>
